<svg xmlns="http://www.w3.org/2000/svg" width="1520" height="860" viewBox="0 0 1520 860" role="img" aria-labelledby="title desc">
  <title id="title">Claude Pets hero placeholder</title>
  <desc id="desc">A placeholder image showing where the Claude Pets desktop screenshot should go.</desc>
  <defs>
    <linearGradient id="bg" x1="0" y1="0" x2="1" y2="1">
      <stop offset="0" stop-color="#f7f2ea"/>
      <stop offset="1" stop-color="#dfe9e6"/>
    </linearGradient>
    <filter id="shadow" x="-20%" y="-20%" width="140%" height="140%">
      <feDropShadow dx="0" dy="18" stdDeviation="22" flood-color="#1d2a2a" flood-opacity="0.16"/>
    </filter>
  </defs>
  <rect width="1520" height="860" rx="36" fill="url(#bg)"/>
  <rect x="86" y="76" width="1348" height="708" rx="28" fill="#fffaf2" stroke="#d8cec0" stroke-width="2"/>
  <rect x="86" y="76" width="1348" height="64" rx="28" fill="#efe5d8"/>
  <circle cx="126" cy="108" r="10" fill="#e06357"/>
  <circle cx="160" cy="108" r="10" fill="#dfb94f"/>
  <circle cx="194" cy="108" r="10" fill="#5caf7d"/>
  <text x="760" y="116" text-anchor="middle" font-family="Arial, Helvetica, sans-serif" font-size="22" fill="#594c41">Claude Code working...</text>
  <g filter="url(#shadow)">
    <rect x="950" y="286" width="332" height="180" rx="24" fill="#ffffff" stroke="#c9d2ce" stroke-width="2"/>
    <text x="982" y="340" font-family="Arial, Helvetica, sans-serif" font-size="28" font-weight="700" fill="#24302d">Needs permission</text>
    <text x="982" y="386" font-family="Arial, Helvetica, sans-serif" font-size="22" fill="#596762">Bash</text>
    <text x="982" y="424" font-family="Arial, Helvetica, sans-serif" font-size="20" fill="#7c8984">npm test</text>
    <rect x="982" y="470" width="116" height="48" rx="12" fill="#2f7d5c"/>
    <text x="1040" y="502" text-anchor="middle" font-family="Arial, Helvetica, sans-serif" font-size="18" font-weight="700" fill="#ffffff">Allow</text>
    <rect x="1118" y="470" width="116" height="48" rx="12" fill="#f0ebe3" stroke="#cfc6ba"/>
    <text x="1176" y="502" text-anchor="middle" font-family="Arial, Helvetica, sans-serif" font-size="18" font-weight="700" fill="#55483f">Deny</text>
  </g>
  <g transform="translate(610 370)">
    <ellipse cx="150" cy="224" rx="166" ry="26" fill="#000000" opacity="0.12"/>
    <rect x="66" y="26" width="168" height="190" rx="56" fill="#2d3430"/>
    <rect x="92" y="58" width="116" height="110" rx="32" fill="#f6d7b0"/>
    <circle cx="122" cy="112" r="12" fill="#26302c"/>
    <circle cx="178" cy="112" r="12" fill="#26302c"/>
    <path d="M130 142 Q150 160 170 142" fill="none" stroke="#26302c" stroke-width="7" stroke-linecap="round"/>
    <rect x="48" y="168" width="54" height="82" rx="24" fill="#2d3430"/>
    <rect x="198" y="168" width="54" height="82" rx="24" fill="#2d3430"/>
    <rect x="96" y="204" width="42" height="70" rx="20" fill="#2d3430"/>
    <rect x="162" y="204" width="42" height="70" rx="20" fill="#2d3430"/>
    <path d="M78 34 L42 0 L96 22" fill="#2d3430"/>
    <path d="M222 34 L258 0 L204 22" fill="#2d3430"/>
  </g>
  <text x="760" y="732" text-anchor="middle" font-family="Arial, Helvetica, sans-serif" font-size="24" fill="#74685e">Replace this placeholder with a real desktop screenshot: docs/assets/hero.png</text>
</svg>
